<svg width="15" height="15" viewBox="0 0 15 15" fill="none" xmlns="http://www.w3.org/2000/svg">
<g id="close(1) 1" clip-path="url(#clip0_348_30609)">
<g id="Group">
<g id="Group_2">
<path id="Vector" d="M8.32819 7.50002L14.8279 1.00029C15.0567 0.771451 15.0567 0.400436 14.8279 0.171628C14.5991 -0.0571801 14.228 -0.0572094 13.9992 0.171628L7.4995 6.67136L0.9998 0.171628C0.770963 -0.0572094 0.399948 -0.0572094 0.17114 0.171628C-0.0576683 0.400466 -0.0576976 0.77148 0.17114 1.00029L6.67084 7.49999L0.17114 13.9997C-0.0576976 14.2286 -0.0576976 14.5996 0.17114 14.8284C0.285544 14.9428 0.435514 15 0.585485 15C0.735455 15 0.885396 14.9428 0.99983 14.8284L7.4995 8.32868L13.9992 14.8284C14.1136 14.9428 14.2636 15 14.4136 15C14.5635 15 14.7135 14.9428 14.8279 14.8284C15.0567 14.5996 15.0567 14.2285 14.8279 13.9997L8.32819 7.50002Z" fill="#52106A"/>
</g>
</g>
</g>
<defs>
<clipPath id="clip0_348_30609">
<rect width="15" height="15" fill="white"/>
</clipPath>
</defs>
</svg>
