<svg xmlns="http://www.w3.org/2000/svg" width="16" height="17" viewBox="0 0 16 17" fill="none">
  <path fill-rule="evenodd" clip-rule="evenodd" d="M13.8539 2.64592C13.9005 2.69236 13.9374 2.74754 13.9626 2.80828C13.9878 2.86903 14.0008 2.93415 14.0008 2.99992C14.0008 3.06568 13.9878 3.13081 13.9626 3.19155C13.9374 3.2523 13.9005 3.30747 13.8539 3.35392L2.8539 14.3539C2.76001 14.4478 2.63267 14.5005 2.4999 14.5005C2.36712 14.5005 2.23979 14.4478 2.1459 14.3539C2.05201 14.26 1.99927 14.1327 1.99927 13.9999C1.99927 13.8671 2.05201 13.7398 2.1459 13.6459L13.1459 2.64592C13.1923 2.59935 13.2475 2.56241 13.3083 2.5372C13.369 2.512 13.4341 2.49902 13.4999 2.49902C13.5657 2.49902 13.6308 2.512 13.6915 2.5372C13.7523 2.56241 13.8075 2.59935 13.8539 2.64592Z" fill="#355209"/>
  <path fill-rule="evenodd" clip-rule="evenodd" d="M2.14592 2.64592C2.09935 2.69236 2.06241 2.74754 2.0372 2.80828C2.012 2.86903 1.99902 2.93415 1.99902 2.99992C1.99902 3.06568 2.012 3.13081 2.0372 3.19155C2.06241 3.2523 2.09935 3.30747 2.14592 3.35392L13.1459 14.3539C13.2398 14.4478 13.3671 14.5005 13.4999 14.5005C13.6327 14.5005 13.76 14.4478 13.8539 14.3539C13.9478 14.26 14.0005 14.1327 14.0005 13.9999C14.0005 13.8671 13.9478 13.7398 13.8539 13.6459L2.85392 2.64592C2.80747 2.59935 2.7523 2.56241 2.69155 2.5372C2.63081 2.512 2.56568 2.49902 2.49992 2.49902C2.43415 2.49902 2.36903 2.512 2.30828 2.5372C2.24754 2.56241 2.19236 2.59935 2.14592 2.64592Z" fill="#355209"/>
</svg>